<?xml version="1.0" standalone="no"?>
<!DOCTYPE svg PUBLIC "-//W3C//DTD SVG 20010904//EN"
 "http://www.w3.org/TR/2001/REC-SVG-20010904/DTD/svg10.dtd">
<svg version="1.0" xmlns="http://www.w3.org/2000/svg"
 width="700.000000pt" height="700.000000pt" viewBox="0 0 700.000000 700.000000"
 preserveAspectRatio="xMidYMid meet">
<metadata>
Created by potrace 1.11, written by Peter Selinger 2001-2013
</metadata>
<g transform="translate(0.000000,700.000000) scale(0.100000,-0.100000)"
fill="#000000" stroke="none">
<path d="M3310 6970 c-715 -37 -1424 -309 -1995 -766 -141 -113 -406 -378
-519 -519 -462 -577 -727 -1273 -765 -2009 -65 -1265 563 -2463 1642 -3133
1018 -631 2311 -688 3388 -148 504 253 959 646 1285 1111 653 931 808 2138
413 3204 -126 337 -323 684 -555 975 -113 141 -377 405 -519 519 -491 393
-1082 649 -1700 737 -117 17 -463 42 -515 37 -8 -1 -80 -4 -160 -8z m1678
-1529 c468 -100 853 -391 1065 -808 116 -229 156 -388 164 -653 4 -158 2 -203
-15 -306 -33 -190 -108 -392 -205 -548 l-25 -40 102 -49 c88 -44 113 -62 197
-146 84 -85 101 -108 146 -201 65 -132 86 -222 85 -365 -1 -327 -196 -611
-502 -733 -136 -54 -10 -51 -2385 -52 -2428 -2 -2260 -6 -2420 61 -107 44
-199 114 -343 257 -140 140 -207 236 -268 385 -130 320 -119 656 33 962 61
122 120 204 222 305 192 191 447 310 718 335 l72 7 7 36 c25 150 113 354 203
473 327 430 902 568 1382 331 l96 -47 38 65 c240 407 658 683 1135 750 106 15
391 4 498 -19z"/>
</g>
</svg>
